<svg width="48" height="50" viewBox="0 0 48 50" fill="none" xmlns="http://www.w3.org/2000/svg" xmlns:xlink="http://www.w3.org/1999/xlink">
<path d="M29.06,19.94L30.121,21.001C30.402,20.719 30.56,20.338 30.56,19.94C30.56,19.542 30.402,19.16 30.121,18.879L29.06,19.94ZM18.94,30.06L17.879,31.121C18.465,31.706 19.415,31.706 20.001,31.121L18.94,30.06ZM27.999,18.879L17.879,28.999L20.001,31.121L30.121,21.001L27.999,18.879ZM20.001,28.999C18.969,27.968 18.34,26.564 18.34,25L15.34,25C15.34,27.395 16.311,29.552 17.879,31.121L20.001,28.999ZM18.34,25C18.34,21.868 20.868,19.34 24,19.34L24,16.34C19.211,16.34 15.34,20.211 15.34,25L18.34,25ZM24,19.34C25.564,19.34 26.968,19.969 27.999,21.001L30.121,18.879C28.552,17.311 26.395,16.34 24,16.34L24,19.34Z" fill="#A1A8B0"/>
<path d="M34.737,13.738C35.398,14.236 36.339,14.105 36.838,13.443C37.337,12.782 37.205,11.841 36.543,11.342L34.737,13.738ZM5.78,19.82L7.045,20.627L7.046,20.625L5.78,19.82ZM5.78,30.2L7.045,29.394L7.045,29.393L5.78,30.2ZM10.222,37.677C10.85,38.217 11.797,38.146 12.337,37.518C12.878,36.89 12.806,35.943 12.178,35.403L10.222,37.677ZM36.543,11.342C32.811,8.527 28.499,6.96 24,6.96L24,9.96C27.781,9.96 31.469,11.273 34.737,13.738L36.543,11.342ZM24,6.96C16.304,6.96 9.296,11.498 4.515,19.015L7.046,20.625C11.424,13.742 17.576,9.96 24,9.96L24,6.96ZM4.516,19.013C3.425,20.722 2.93,22.911 2.93,25.01C2.93,27.108 3.425,29.298 4.516,31.007L7.045,29.393C6.335,28.282 5.93,26.691 5.93,25.01C5.93,23.328 6.335,21.738 7.045,20.627L4.516,19.013ZM4.515,31.006C6.168,33.6 8.102,35.854 10.222,37.677L12.178,35.403C10.298,33.786 8.553,31.76 7.045,29.394L4.515,31.006Z" fill="#A1A8B0"/>
<path d="M17.422,38.677C16.658,38.356 15.779,38.714 15.457,39.478C15.136,40.241 15.494,41.121 16.258,41.442L17.422,38.677ZM42.22,30.18L40.955,29.373L40.954,29.375L42.22,30.18ZM42.22,19.8L40.953,20.604L40.955,20.607L42.22,19.8ZM41.269,15.92C40.749,15.274 39.805,15.172 39.16,15.691C38.514,16.21 38.412,17.154 38.931,17.8L41.269,15.92ZM16.258,41.442C18.709,42.475 21.327,43.04 24,43.04L24,40.04C21.753,40.04 19.53,39.565 17.422,38.677L16.258,41.442ZM24,43.04C31.696,43.04 38.704,38.502 43.485,30.985L40.954,29.375C36.576,36.257 30.424,40.04 24,40.04L24,43.04ZM43.484,30.987C44.575,29.278 45.07,27.088 45.07,24.99C45.07,22.891 44.575,20.702 43.484,18.993L40.955,20.607C41.665,21.718 42.07,23.308 42.07,24.99C42.07,26.671 41.665,28.262 40.955,29.373L43.484,30.987ZM43.486,18.996C42.791,17.9 42.036,16.874 41.269,15.92L38.931,17.8C39.643,18.685 40.329,19.62 40.953,20.604L43.486,18.996Z" fill="#A1A8B0"/>
<path d="M32.495,26.672C32.645,25.857 32.107,25.075 31.292,24.925C30.477,24.775 29.695,25.313 29.545,26.128L32.495,26.672ZM25.108,30.565C24.293,30.715 23.755,31.497 23.905,32.312C24.055,33.127 24.837,33.665 25.652,33.515L25.108,30.565ZM29.545,26.128C29.138,28.336 27.316,30.158 25.108,30.565L25.652,33.515C29.084,32.882 31.862,30.104 32.495,26.672L29.545,26.128Z" fill="#A1A8B0"/>
<path d="M20.001,31.121C20.586,30.535 20.586,29.585 20.001,28.999C19.415,28.414 18.465,28.414 17.879,28.999L20.001,31.121ZM2.939,43.939C2.354,44.525 2.354,45.475 2.939,46.061C3.525,46.646 4.475,46.646 5.061,46.061L2.939,43.939ZM17.879,28.999L2.939,43.939L5.061,46.061L20.001,31.121L17.879,28.999Z" fill="#A1A8B0"/>
<path d="M45.061,6.061C45.646,5.475 45.646,4.525 45.061,3.939C44.475,3.354 43.525,3.354 42.939,3.939L45.061,6.061ZM27.999,18.879C27.414,19.465 27.414,20.415 27.999,21.001C28.585,21.586 29.535,21.586 30.121,21.001L27.999,18.879ZM42.939,3.939L27.999,18.879L30.121,21.001L45.061,6.061L42.939,3.939Z" fill="#A1A8B0"/>
</svg>
