<svg width="48" height="48" viewBox="0 0 48 48" fill="none" xmlns="http://www.w3.org/2000/svg" xmlns:xlink="http://www.w3.org/1999/xlink">
<path d="M29.06,17.94L30.121,19.001C30.402,18.719 30.56,18.338 30.56,17.94C30.56,17.542 30.402,17.161 30.121,16.879L29.06,17.94ZM18.94,28.06L17.879,29.121C18.465,29.707 19.415,29.707 20.001,29.121L18.94,28.06ZM27.999,16.879L17.879,26.999L20.001,29.121L30.121,19.001L27.999,16.879ZM20.001,26.999C18.969,25.968 18.34,24.564 18.34,23L15.34,23C15.34,25.396 16.311,27.552 17.879,29.121L20.001,26.999ZM18.34,23C18.34,19.869 20.868,17.34 24,17.34L24,14.34C19.211,14.34 15.34,18.212 15.34,23L18.34,23ZM24,17.34C25.564,17.34 26.968,17.969 27.999,19.001L30.121,16.879C28.552,15.311 26.395,14.34 24,14.34L24,17.34Z" fill="#A1A8B0"/>
<path d="M34.737,11.738C35.398,12.236 36.339,12.105 36.838,11.443C37.337,10.782 37.205,9.841 36.543,9.342L34.737,11.738ZM5.78,17.82L7.045,18.627L7.046,18.625L5.78,17.82ZM5.78,28.2L7.045,27.394L7.045,27.393L5.78,28.2ZM10.222,35.677C10.85,36.217 11.797,36.146 12.337,35.518C12.878,34.89 12.806,33.943 12.178,33.403L10.222,35.677ZM36.543,9.342C32.811,6.527 28.499,4.96 24,4.96L24,7.96C27.781,7.96 31.469,9.273 34.737,11.738L36.543,9.342ZM24,4.96C16.304,4.96 9.296,9.498 4.515,17.015L7.046,18.625C11.424,11.742 17.576,7.96 24,7.96L24,4.96ZM4.516,17.013C3.425,18.722 2.93,20.911 2.93,23.01C2.93,25.108 3.425,27.298 4.516,29.007L7.045,27.393C6.335,26.282 5.93,24.691 5.93,23.01C5.93,21.328 6.335,19.738 7.045,18.627L4.516,17.013ZM4.515,29.006C6.168,31.6 8.102,33.854 10.222,35.677L12.178,33.403C10.298,31.786 8.553,29.76 7.045,27.394L4.515,29.006Z" fill="#A1A8B0"/>
<path d="M17.422,36.678C16.658,36.356 15.779,36.715 15.457,37.478C15.136,38.242 15.494,39.121 16.258,39.443L17.422,36.678ZM42.22,28.18L40.955,27.373L40.954,27.375L42.22,28.18ZM42.22,17.8L40.953,18.604L40.955,18.607L42.22,17.8ZM41.269,13.92C40.749,13.274 39.805,13.172 39.16,13.691C38.514,14.211 38.412,15.155 38.931,15.8L41.269,13.92ZM16.258,39.443C18.709,40.475 21.327,41.04 24,41.04L24,38.04C21.753,38.04 19.53,37.565 17.422,36.678L16.258,39.443ZM24,41.04C31.696,41.04 38.704,36.503 43.485,28.985L40.954,27.375C36.576,34.258 30.424,38.04 24,38.04L24,41.04ZM43.484,28.987C44.575,27.278 45.07,25.089 45.07,22.99C45.07,20.892 44.575,18.702 43.484,16.993L40.955,18.607C41.665,19.718 42.07,21.309 42.07,22.99C42.07,24.672 41.665,26.262 40.955,27.373L43.484,28.987ZM43.486,16.996C42.791,15.9 42.036,14.875 41.269,13.92L38.931,15.8C39.643,16.686 40.329,17.62 40.953,18.604L43.486,16.996Z" fill="#A1A8B0"/>
<path d="M32.495,24.672C32.645,23.857 32.107,23.075 31.292,22.925C30.477,22.775 29.695,23.313 29.545,24.128L32.495,24.672ZM25.108,28.565C24.293,28.715 23.755,29.497 23.905,30.312C24.055,31.127 24.837,31.665 25.652,31.515L25.108,28.565ZM29.545,24.128C29.138,26.336 27.316,28.158 25.108,28.565L25.652,31.515C29.084,30.882 31.862,28.104 32.495,24.672L29.545,24.128Z" fill="#A1A8B0"/>
<path d="M20.001,29.121C20.586,28.535 20.586,27.585 20.001,26.999C19.415,26.414 18.465,26.414 17.879,26.999L20.001,29.121ZM2.939,41.939C2.354,42.525 2.354,43.475 2.939,44.061C3.525,44.646 4.475,44.646 5.061,44.061L2.939,41.939ZM17.879,26.999L2.939,41.939L5.061,44.061L20.001,29.121L17.879,26.999Z" fill="#A1A8B0"/>
<path d="M45.061,4.061C45.646,3.475 45.646,2.525 45.061,1.939C44.475,1.354 43.525,1.354 42.939,1.939L45.061,4.061ZM27.999,16.879C27.414,17.465 27.414,18.415 27.999,19.001C28.585,19.586 29.535,19.586 30.121,19.001L27.999,16.879ZM42.939,1.939L27.999,16.879L30.121,19.001L45.061,4.061L42.939,1.939Z" fill="#A1A8B0"/>
</svg>
