<svg width="40" height="40" viewBox="0 0 40 40" fill="none" xmlns="http://www.w3.org/2000/svg" xmlns:xlink="http://www.w3.org/1999/xlink">
<path d="M39.15,20.45C39.15,19.133 39.033,17.883 38.833,16.667L20,16.667L20,24.183L30.783,24.183C30.3,26.65 28.883,28.733 26.783,30.15L26.783,35.15L33.217,35.15C36.983,31.667 39.15,26.533 39.15,20.45Z" fill="#4285F4"/>
<path d="M20,40C25.4,40 29.917,38.2 33.217,35.15L26.783,30.15C24.983,31.35 22.7,32.084 20,32.084C14.783,32.084 10.367,28.567 8.783,23.817L2.15,23.817L2.15,28.967C5.433,35.5 12.183,40 20,40Z" fill="#34A853"/>
<path d="M8.783,23.817C8.367,22.617 8.15,21.333 8.15,20C8.15,18.667 8.383,17.383 8.783,16.183L8.783,11.033L2.15,11.033C0.783,13.733 0,16.767 0,20C0,23.233 0.783,26.267 2.15,28.967L8.783,23.817Z" fill="#FBBC05"/>
<path d="M20,7.917C22.95,7.917 25.583,8.933 27.667,10.917L33.367,5.217C29.917,1.983 25.4,0 20,0C12.183,0 5.433,4.5 2.15,11.033L8.783,16.183C10.367,11.433 14.783,7.917 20,7.917Z" fill="#EA4335"/>
</svg>
