<svg width="48" height="48" viewBox="0 0 48 48" fill="none" xmlns="http://www.w3.org/2000/svg" xmlns:xlink="http://www.w3.org/1999/xlink">
<path d="M10.5,19C10.5,19.828 11.172,20.5 12,20.5C12.828,20.5 13.5,19.828 13.5,19L10.5,19ZM34.5,19C34.5,19.828 35.172,20.5 36,20.5C36.828,20.5 37.5,19.828 37.5,19L34.5,19ZM13.5,19L13.5,15L10.5,15L10.5,19L13.5,19ZM13.5,15C13.5,11.78 14.001,9.218 15.418,7.458C16.779,5.769 19.257,4.5 24,4.5L24,1.5C18.743,1.5 15.221,2.921 13.082,5.577C10.999,8.162 10.5,11.6 10.5,15L13.5,15ZM24,4.5C28.743,4.5 31.221,5.769 32.582,7.458C33.999,9.218 34.5,11.78 34.5,15L37.5,15C37.5,11.6 37.001,8.162 34.918,5.577C32.779,2.921 29.257,1.5 24,1.5L24,4.5ZM34.5,15L34.5,19L37.5,19L37.5,15L34.5,15Z" fill="#A1A8B0"/>
<path d="M34,41.5L14,41.5L14,44.5L34,44.5L34,41.5ZM14,41.5C9.989,41.5 8.084,40.962 7.061,39.939C6.038,38.916 5.5,37.011 5.5,33L2.5,33C2.5,36.989 2.962,40.084 4.939,42.061C6.916,44.038 10.011,44.5 14,44.5L14,41.5ZM5.5,33L5.5,29L2.5,29L2.5,33L5.5,33ZM5.5,29C5.5,24.989 6.038,23.084 7.061,22.061C8.084,21.038 9.989,20.5 14,20.5L14,17.5C10.011,17.5 6.916,17.962 4.939,19.939C2.962,21.916 2.5,25.011 2.5,29L5.5,29ZM14,20.5L34,20.5L34,17.5L14,17.5L14,20.5ZM34,20.5C38.011,20.5 39.916,21.038 40.939,22.061C41.962,23.084 42.5,24.989 42.5,29L45.5,29C45.5,25.011 45.038,21.916 43.061,19.939C41.084,17.962 37.989,17.5 34,17.5L34,20.5ZM42.5,29L42.5,33L45.5,33L45.5,29L42.5,29ZM42.5,33C42.5,37.011 41.962,38.916 40.939,39.939C39.916,40.962 38.011,41.5 34,41.5L34,44.5C37.989,44.5 41.084,44.038 43.061,42.061C45.038,40.084 45.5,36.989 45.5,33L42.5,33Z" fill="#A1A8B0"/>
<path d="M31.993,29C30.888,29 29.993,29.895 29.993,31C29.993,32.105 30.888,33 31.993,33L31.993,29ZM32.011,33C33.115,33 34.011,32.105 34.011,31C34.011,29.895 33.115,29 32.011,29L32.011,33ZM31.993,33L32.011,33L32.011,29L31.993,29L31.993,33Z" fill="#A1A8B0"/>
<path d="M23.991,29C22.886,29 21.991,29.895 21.991,31C21.991,32.105 22.886,33 23.991,33L23.991,29ZM24.009,33C25.113,33 26.009,32.105 26.009,31C26.009,29.895 25.113,29 24.009,29L24.009,33ZM23.991,33L24.009,33L24.009,29L23.991,29L23.991,33Z" fill="#A1A8B0"/>
<path d="M15.989,29C14.884,29 13.989,29.895 13.989,31C13.989,32.105 14.884,33 15.989,33L15.989,29ZM16.007,33C17.112,33 18.007,32.105 18.007,31C18.007,29.895 17.112,29 16.007,29L16.007,33ZM15.989,33L16.007,33L16.007,29L15.989,29L15.989,33Z" fill="#A1A8B0"/>
</svg>
