<svg width="48" height="50" viewBox="0 0 48 50" fill="none" xmlns="http://www.w3.org/2000/svg" xmlns:xlink="http://www.w3.org/1999/xlink">
<path d="M10.5,21C10.5,21.828 11.172,22.5 12,22.5C12.828,22.5 13.5,21.828 13.5,21L10.5,21ZM34.5,21C34.5,21.828 35.172,22.5 36,22.5C36.828,22.5 37.5,21.828 37.5,21L34.5,21ZM13.5,21L13.5,17L10.5,17L10.5,21L13.5,21ZM13.5,17C13.5,13.78 14.001,11.218 15.418,9.458C16.779,7.769 19.257,6.5 24,6.5L24,3.5C18.743,3.5 15.221,4.921 13.082,7.577C10.999,10.162 10.5,13.6 10.5,17L13.5,17ZM24,6.5C28.743,6.5 31.221,7.769 32.582,9.458C33.999,11.218 34.5,13.78 34.5,17L37.5,17C37.5,13.6 37.001,10.162 34.918,7.577C32.779,4.921 29.257,3.5 24,3.5L24,6.5ZM34.5,17L34.5,21L37.5,21L37.5,17L34.5,17Z" fill="#A1A8B0"/>
<path d="M34,43.5L14,43.5L14,46.5L34,46.5L34,43.5ZM14,43.5C9.989,43.5 8.084,42.962 7.061,41.939C6.038,40.916 5.5,39.011 5.5,35L2.5,35C2.5,38.989 2.962,42.084 4.939,44.061C6.916,46.038 10.011,46.5 14,46.5L14,43.5ZM5.5,35L5.5,31L2.5,31L2.5,35L5.5,35ZM5.5,31C5.5,26.989 6.038,25.084 7.061,24.061C8.084,23.038 9.989,22.5 14,22.5L14,19.5C10.011,19.5 6.916,19.962 4.939,21.939C2.962,23.916 2.5,27.011 2.5,31L5.5,31ZM14,22.5L34,22.5L34,19.5L14,19.5L14,22.5ZM34,22.5C38.011,22.5 39.916,23.038 40.939,24.061C41.962,25.084 42.5,26.989 42.5,31L45.5,31C45.5,27.011 45.038,23.916 43.061,21.939C41.084,19.962 37.989,19.5 34,19.5L34,22.5ZM42.5,31L42.5,35L45.5,35L45.5,31L42.5,31ZM42.5,35C42.5,39.011 41.962,40.916 40.939,41.939C39.916,42.962 38.011,43.5 34,43.5L34,46.5C37.989,46.5 41.084,46.038 43.061,44.061C45.038,42.084 45.5,38.989 45.5,35L42.5,35Z" fill="#A1A8B0"/>
<path d="M31.993,31C30.888,31 29.993,31.895 29.993,33C29.993,34.105 30.888,35 31.993,35L31.993,31ZM32.011,35C33.115,35 34.011,34.105 34.011,33C34.011,31.895 33.115,31 32.011,31L32.011,35ZM31.993,35L32.011,35L32.011,31L31.993,31L31.993,35Z" fill="#A1A8B0"/>
<path d="M23.991,31C22.886,31 21.991,31.895 21.991,33C21.991,34.105 22.886,35 23.991,35L23.991,31ZM24.009,35C25.113,35 26.009,34.105 26.009,33C26.009,31.895 25.113,31 24.009,31L24.009,35ZM23.991,35L24.009,35L24.009,31L23.991,31L23.991,35Z" fill="#A1A8B0"/>
<path d="M15.989,31C14.884,31 13.989,31.895 13.989,33C13.989,34.105 14.884,35 15.989,35L15.989,31ZM16.007,35C17.112,35 18.007,34.105 18.007,33C18.007,31.895 17.112,31 16.007,31L16.007,35ZM15.989,35L16.007,35L16.007,31L15.989,31L15.989,35Z" fill="#A1A8B0"/>
</svg>
