<svg width="48" height="48" viewBox="0 0 48 48" fill="none" xmlns="http://www.w3.org/2000/svg" xmlns:xlink="http://www.w3.org/1999/xlink">
<path d="M34,38.5L14,38.5L14,41.5L34,41.5L34,38.5ZM14,38.5C11.23,38.5 9.151,37.807 7.771,36.526C6.411,35.263 5.5,33.214 5.5,30L2.5,30C2.5,33.786 3.589,36.737 5.729,38.724C7.849,40.693 10.77,41.5 14,41.5L14,38.5ZM5.5,30L5.5,16L2.5,16L2.5,30L5.5,30ZM5.5,16C5.5,12.786 6.411,10.737 7.771,9.474C9.151,8.193 11.23,7.5 14,7.5L14,4.5C10.77,4.5 7.849,5.307 5.729,7.276C3.589,9.263 2.5,12.214 2.5,16L5.5,16ZM14,7.5L34,7.5L34,4.5L14,4.5L14,7.5ZM34,7.5C36.77,7.5 38.849,8.193 40.229,9.474C41.589,10.737 42.5,12.786 42.5,16L45.5,16C45.5,12.214 44.411,9.263 42.271,7.276C40.151,5.307 37.23,4.5 34,4.5L34,7.5ZM42.5,16L42.5,30L45.5,30L45.5,16L42.5,16ZM42.5,30C42.5,33.214 41.589,35.263 40.229,36.526C38.849,37.807 36.77,38.5 34,38.5L34,41.5C37.23,41.5 40.151,40.693 42.271,38.724C44.411,36.737 45.5,33.786 45.5,30L42.5,30Z" fill="#A1A8B0"/>
<path d="M34.936,18.172C35.583,17.655 35.689,16.711 35.172,16.064C34.655,15.417 33.711,15.311 33.064,15.828L34.936,18.172ZM27.74,22L28.674,23.174L28.676,23.172L27.74,22ZM20.24,22L19.302,23.171L19.306,23.174L20.24,22ZM14.938,15.829C14.291,15.311 13.347,15.416 12.829,16.062C12.311,16.709 12.416,17.653 13.062,18.171L14.938,15.829ZM33.064,15.828L26.804,20.828L28.676,23.172L34.936,18.172L33.064,15.828ZM26.806,20.826C25.293,22.031 22.687,22.031 21.174,20.826L19.306,23.174C21.913,25.249 26.067,25.249 28.674,23.174L26.806,20.826ZM21.178,20.829L14.938,15.829L13.062,18.171L19.302,23.171L21.178,20.829Z" fill="#A1A8B0"/>
</svg>
