<svg width="48" height="48" viewBox="0 0 48 48" fill="none" xmlns="http://www.w3.org/2000/svg" xmlns:xlink="http://www.w3.org/1999/xlink">
<path d="M34,39.5L14,39.5L14,42.5L34,42.5L34,39.5ZM14,39.5C11.23,39.5 9.151,38.807 7.771,37.526C6.411,36.263 5.5,34.214 5.5,31L2.5,31C2.5,34.786 3.589,37.737 5.729,39.724C7.849,41.693 10.77,42.5 14,42.5L14,39.5ZM5.5,31L5.5,17L2.5,17L2.5,31L5.5,31ZM5.5,17C5.5,13.786 6.411,11.737 7.771,10.474C9.151,9.193 11.23,8.5 14,8.5L14,5.5C10.77,5.5 7.849,6.307 5.729,8.276C3.589,10.263 2.5,13.214 2.5,17L5.5,17ZM14,8.5L34,8.5L34,5.5L14,5.5L14,8.5ZM34,8.5C36.77,8.5 38.849,9.193 40.229,10.474C41.589,11.737 42.5,13.786 42.5,17L45.5,17C45.5,13.214 44.411,10.263 42.271,8.276C40.151,6.307 37.23,5.5 34,5.5L34,8.5ZM42.5,17L42.5,31L45.5,31L45.5,17L42.5,17ZM42.5,31C42.5,34.214 41.589,36.263 40.229,37.526C38.849,38.807 36.77,39.5 34,39.5L34,42.5C37.23,42.5 40.151,41.693 42.271,39.724C44.411,37.737 45.5,34.786 45.5,31L42.5,31Z" fill="#A1A8B0"/>
<path d="M34.936,19.172C35.583,18.655 35.689,17.711 35.172,17.064C34.655,16.417 33.711,16.311 33.064,16.828L34.936,19.172ZM27.74,23L28.674,24.174L28.676,24.172L27.74,23ZM20.24,23L19.302,24.171L19.306,24.174L20.24,23ZM14.938,16.829C14.291,16.311 13.347,16.416 12.829,17.062C12.311,17.709 12.416,18.653 13.062,19.171L14.938,16.829ZM33.064,16.828L26.804,21.828L28.676,24.172L34.936,19.172L33.064,16.828ZM26.806,21.826C25.293,23.031 22.687,23.031 21.174,21.826L19.306,24.174C21.913,26.249 26.067,26.249 28.674,24.174L26.806,21.826ZM21.178,21.829L14.938,16.829L13.062,19.171L19.302,24.171L21.178,21.829Z" fill="#A1A8B0"/>
</svg>
