<svg width="48" height="50" viewBox="0 0 48 50" fill="none" xmlns="http://www.w3.org/2000/svg" xmlns:xlink="http://www.w3.org/1999/xlink">
<path d="M34,40.5L14,40.5L14,43.5L34,43.5L34,40.5ZM14,40.5C11.23,40.5 9.151,39.807 7.771,38.526C6.411,37.263 5.5,35.214 5.5,32L2.5,32C2.5,35.786 3.589,38.737 5.729,40.724C7.849,42.693 10.77,43.5 14,43.5L14,40.5ZM5.5,32L5.5,18L2.5,18L2.5,32L5.5,32ZM5.5,18C5.5,14.786 6.411,12.737 7.771,11.474C9.151,10.193 11.23,9.5 14,9.5L14,6.5C10.77,6.5 7.849,7.307 5.729,9.276C3.589,11.263 2.5,14.214 2.5,18L5.5,18ZM14,9.5L34,9.5L34,6.5L14,6.5L14,9.5ZM34,9.5C36.77,9.5 38.849,10.193 40.229,11.474C41.589,12.737 42.5,14.786 42.5,18L45.5,18C45.5,14.214 44.411,11.263 42.271,9.276C40.151,7.307 37.23,6.5 34,6.5L34,9.5ZM42.5,18L42.5,32L45.5,32L45.5,18L42.5,18ZM42.5,32C42.5,35.214 41.589,37.263 40.229,38.526C38.849,39.807 36.77,40.5 34,40.5L34,43.5C37.23,43.5 40.151,42.693 42.271,40.724C44.411,38.737 45.5,35.786 45.5,32L42.5,32Z" fill="#A1A8B0"/>
<path d="M34.936,20.172C35.583,19.655 35.689,18.711 35.172,18.064C34.655,17.417 33.711,17.311 33.064,17.828L34.936,20.172ZM27.74,24L28.674,25.174L28.676,25.172L27.74,24ZM20.24,24L19.302,25.171L19.306,25.174L20.24,24ZM14.938,17.829C14.291,17.311 13.347,17.416 12.829,18.062C12.311,18.709 12.416,19.653 13.062,20.171L14.938,17.829ZM33.064,17.828L26.804,22.828L28.676,25.172L34.936,20.172L33.064,17.828ZM26.806,22.826C25.293,24.031 22.687,24.031 21.174,22.826L19.306,25.174C21.913,27.249 26.067,27.249 28.674,25.174L26.806,22.826ZM21.178,22.829L14.938,17.829L13.062,20.171L19.302,25.171L21.178,22.829Z" fill="#A1A8B0"/>
</svg>
