<svg width="24" height="48" viewBox="0 0 24 48" fill="none" xmlns="http://www.w3.org/2000/svg" xmlns:xlink="http://www.w3.org/1999/xlink">
<path d="M20.721,45.871C21.324,46.44 22.273,46.412 22.841,45.809C23.41,45.206 23.382,44.257 22.779,43.689L20.721,45.871ZM2.733,26.85L3.762,25.759L2.733,26.85ZM2.733,19.15L3.762,20.241L2.733,19.15ZM22.779,2.311C23.382,1.743 23.41,0.794 22.841,0.191C22.273,-0.412 21.324,-0.44 20.721,0.129L22.779,2.311ZM22.779,43.689L3.762,25.759L1.704,27.941L20.721,45.871L22.779,43.689ZM3.762,25.759C2.144,24.233 2.144,21.767 3.762,20.241L1.704,18.059C-1.17,20.768 -1.17,25.232 1.704,27.941L3.762,25.759ZM3.762,20.241L22.779,2.311L20.721,0.129L1.704,18.059L3.762,20.241Z" fill="#101623"/>
</svg>
