<svg width="30" height="50" viewBox="0 0 30 50" fill="none" xmlns="http://www.w3.org/2000/svg" xmlns:xlink="http://www.w3.org/1999/xlink">
<path d="M26.185,48.76C26.841,49.266 27.783,49.143 28.288,48.487C28.794,47.831 28.672,46.889 28.015,46.383L26.185,48.76ZM2.976,28.99L3.891,27.801L2.976,28.99ZM2.976,21.01L3.891,22.198L2.976,21.01ZM28.015,3.616C28.672,3.111 28.794,2.169 28.288,1.512C27.783,0.856 26.841,0.734 26.185,1.239L28.015,3.616ZM28.015,46.383L3.891,27.801L2.061,30.178L26.185,48.76L28.015,46.383ZM3.891,27.801C2.789,26.953 2.339,25.925 2.339,25C2.339,24.074 2.789,23.047 3.891,22.198L2.061,19.821C0.314,21.167 -0.661,23.033 -0.661,25C-0.661,26.967 0.314,28.832 2.061,30.178L3.891,27.801ZM3.891,22.198L28.015,3.616L26.185,1.239L2.061,19.821L3.891,22.198Z" fill="#101623"/>
</svg>
