<svg width="22" height="46" viewBox="0 0 22 46" fill="none" xmlns="http://www.w3.org/2000/svg" xmlns:xlink="http://www.w3.org/1999/xlink">
<path d="M18.939,44.181C19.525,44.766 20.475,44.766 21.061,44.181C21.646,43.595 21.646,42.645 21.061,42.059L18.939,44.181ZM2.613,25.733L3.674,24.673L2.613,25.733ZM2.613,18.267L3.674,19.327L2.613,18.267ZM21.061,1.941C21.646,1.355 21.646,0.405 21.061,-0.181C20.475,-0.766 19.525,-0.766 18.939,-0.181L21.061,1.941ZM21.061,42.059L3.674,24.673L1.553,26.794L18.939,44.181L21.061,42.059ZM3.674,24.673C2.206,23.205 2.206,20.795 3.674,19.327L1.553,17.206C-1.087,19.845 -1.087,24.155 1.553,26.794L3.674,24.673ZM3.674,19.327L21.061,1.941L18.939,-0.181L1.553,17.206L3.674,19.327Z" fill="#101623"/>
</svg>
