<svg width="26" height="20" viewBox="0 0 26 20" fill="none" xmlns="http://www.w3.org/2000/svg" xmlns:xlink="http://www.w3.org/1999/xlink">
<path d="M2.394,8.939C1.808,8.354 0.858,8.354 0.273,8.939C-0.313,9.525 -0.313,10.475 0.273,11.061L2.394,8.939ZM9.333,18L8.273,19.061C8.571,19.359 8.98,19.518 9.401,19.498C9.822,19.479 10.216,19.284 10.486,18.96L9.333,18ZM23.819,2.96C24.349,2.324 24.263,1.378 23.627,0.848C22.99,0.317 22.045,0.403 21.514,1.04L23.819,2.96ZM0.273,11.061L8.273,19.061L10.394,16.939L2.394,8.939L0.273,11.061ZM10.486,18.96L23.819,2.96L21.514,1.04L8.181,17.04L10.486,18.96Z" fill="#13B97D"/>
</svg>
