<svg width="34" height="42" viewBox="0 0 34 42" fill="none" xmlns="http://www.w3.org/2000/svg" xmlns:xlink="http://www.w3.org/1999/xlink">
<path d="M28.08,38.4C25.912,40.504 23.52,40.176 21.24,39.184C18.816,38.172 16.6,38.108 14.04,39.184C10.852,40.56 9.16,40.16 7.24,38.4C-3.6,27.24 -2,10.24 10.32,9.6C13.308,9.76 15.4,11.252 17.16,11.376C19.776,10.844 22.28,9.32 25.08,9.52C28.444,9.792 30.96,11.12 32.64,13.508C25.72,17.668 27.36,26.788 33.716,29.348C32.444,32.688 30.812,35.988 28.076,38.428L28.08,38.4ZM16.92,9.48C16.596,4.52 20.616,0.44 25.24,0.04C25.876,5.76 20.04,10.04 16.92,9.48Z" fill="#101623"/>
</svg>
