<svg width="46" height="44" viewBox="0 0 46 44" fill="none" xmlns="http://www.w3.org/2000/svg" xmlns:xlink="http://www.w3.org/1999/xlink">
<path d="M41.08,38.88L42.561,40.224L42.562,40.223L41.08,38.88ZM37.8,41.24L37.042,39.389L37.031,39.394L37.8,41.24ZM20.5,36.58L19.32,38.195L19.323,38.197L20.5,36.58ZM13.94,30.98L12.519,32.387L12.533,32.401L13.94,30.98ZM8.36,24.44L6.736,25.608L6.743,25.617L8.36,24.44ZM4.44,17.62L2.597,18.396L2.599,18.402L4.44,17.62ZM3.72,7.22L5.577,7.963L5.581,7.952L3.72,7.22ZM6.02,3.88L7.392,5.335L7.408,5.32L7.423,5.305L6.02,3.88ZM11.8,2.36L10.935,4.163L10.948,4.17L10.962,4.176L11.8,2.36ZM13.14,3.48L11.495,4.619L11.509,4.637L13.14,3.48ZM17.78,10.02L16.149,11.177L16.157,11.189L17.78,10.02ZM18.58,11.42L16.729,12.177L16.735,12.193L16.742,12.208L18.58,11.42ZM18.44,14.06L16.732,13.02L16.715,13.048L16.699,13.076L18.44,14.06ZM17.32,15.48L15.906,14.066L15.892,14.079L15.879,14.093L17.32,15.48ZM15.8,17.06L17.214,18.474L17.228,18.461L17.241,18.447L15.8,17.06ZM15.54,18.32L13.6,18.805L13.627,18.916L13.667,19.022L15.54,18.32ZM15.7,18.72L13.803,19.352L13.859,19.521L13.944,19.678L15.7,18.72ZM17.56,21.28L16.033,22.572L16.048,22.589L17.56,21.28ZM20.46,24.44L19.032,25.841L19.046,25.854L19.059,25.867L20.46,24.44ZM23.64,27.38L22.346,28.905L22.348,28.907L23.64,27.38ZM26.22,29.22L25.284,30.988L25.378,31.037L25.477,31.077L26.22,29.22ZM26.58,29.38L25.792,31.218L25.835,31.236L25.878,31.253L26.58,29.38ZM27.9,29.12L26.495,27.696L26.486,27.706L27.9,29.12ZM29.42,27.62L30.825,29.044L30.834,29.034L29.42,27.62ZM30.86,26.5L31.785,28.273L31.844,28.243L31.9,28.208L30.86,26.5ZM34.9,27.12L36.058,25.489L36.041,25.478L36.025,25.466L34.9,27.12ZM41.52,31.82L40.362,33.451L40.382,33.464L41.52,31.82ZM42.62,33.1L44.477,32.357L44.464,32.326L44.451,32.295L42.62,33.1ZM40.94,34.66C40.94,35.08 40.847,35.529 40.632,35.986L44.248,37.694C44.713,36.711 44.94,35.68 44.94,34.66L40.94,34.66ZM40.632,35.986C40.371,36.538 40.038,37.051 39.598,37.537L42.562,40.223C43.282,39.429 43.829,38.582 44.248,37.694L40.632,35.986ZM39.599,37.536C38.795,38.422 37.955,39.015 37.042,39.389L38.558,43.091C40.085,42.465 41.405,41.498 42.561,40.224L39.599,37.536ZM37.031,39.394C36.084,39.788 35.046,40 33.9,40L33.9,44C35.554,44 37.116,43.692 38.569,43.086L37.031,39.394ZM33.9,40C32.176,40 30.263,39.594 28.164,38.7L26.596,42.38C29.097,43.446 31.544,44 33.9,44L33.9,40ZM28.164,38.7C26.017,37.785 23.848,36.544 21.677,34.963L19.323,38.197C21.712,39.936 24.143,41.335 26.596,42.38L28.164,38.7ZM21.68,34.965C19.462,33.345 17.358,31.55 15.347,29.559L12.533,32.401C14.682,34.53 16.938,36.455 19.32,38.195L21.68,34.965ZM15.361,29.573C13.369,27.562 11.575,25.458 9.977,23.263L6.743,25.617C8.465,27.982 10.391,30.238 12.519,32.387L15.361,29.573ZM9.984,23.272C8.414,21.09 7.173,18.939 6.281,16.838L2.599,18.402C3.627,20.821 5.026,23.23 6.736,25.608L9.984,23.272ZM6.283,16.844C5.407,14.764 5,12.848 5,11.08L1,11.08C1,13.472 1.553,15.916 2.597,18.396L6.283,16.844ZM5,11.08C5,9.957 5.198,8.911 5.577,7.963L1.863,6.477C1.282,7.929 1,9.483 1,11.08L5,11.08ZM5.581,7.952C5.947,7.023 6.533,6.146 7.392,5.335L4.648,2.425C3.387,3.615 2.453,4.977 1.859,6.488L5.581,7.952ZM7.423,5.305C8.401,4.342 9.318,4 10.18,4L10.18,0C8.082,0 6.199,0.898 4.617,2.455L7.423,5.305ZM10.18,4C10.46,4 10.722,4.061 10.935,4.163L12.665,0.557C11.878,0.179 11.02,0 10.18,0L10.18,4ZM10.962,4.176C11.185,4.279 11.356,4.416 11.496,4.618L14.784,2.342C14.205,1.504 13.455,0.921 12.638,0.544L10.962,4.176ZM11.509,4.637L16.149,11.177L19.411,8.863L14.771,2.323L11.509,4.637ZM16.157,11.189C16.444,11.588 16.62,11.911 16.729,12.177L20.431,10.663C20.18,10.049 19.836,9.452 19.403,8.851L16.157,11.189ZM16.742,12.208C16.844,12.446 16.86,12.595 16.86,12.64L20.86,12.64C20.86,11.925 20.676,11.234 20.418,10.632L16.742,12.208ZM16.86,12.64C16.86,12.717 16.84,12.841 16.732,13.02L20.148,15.1C20.6,14.359 20.86,13.523 20.86,12.64L16.86,12.64ZM16.699,13.076C16.551,13.338 16.295,13.676 15.906,14.066L18.734,16.894C19.305,16.324 19.809,15.702 20.181,15.044L16.699,13.076ZM15.879,14.093L14.359,15.673L17.241,18.447L18.761,16.867L15.879,14.093ZM14.386,15.646C13.76,16.272 13.48,17.055 13.48,17.86L17.48,17.86C17.48,17.912 17.471,18.022 17.417,18.159C17.361,18.3 17.282,18.407 17.214,18.474L14.386,15.646ZM13.48,17.86C13.48,18.209 13.527,18.514 13.6,18.805L17.48,17.835C17.475,17.813 17.476,17.813 17.477,17.826C17.478,17.832 17.479,17.839 17.479,17.846C17.48,17.853 17.48,17.858 17.48,17.86L13.48,17.86ZM13.667,19.022C13.715,19.149 13.763,19.26 13.786,19.314C13.815,19.385 13.811,19.377 13.803,19.352L17.597,18.088C17.549,17.943 17.495,17.815 17.469,17.756C17.437,17.68 17.425,17.651 17.413,17.618L13.667,19.022ZM13.944,19.678C14.399,20.511 15.118,21.49 16.033,22.572L19.087,19.988C18.242,18.99 17.721,18.249 17.456,17.762L13.944,19.678ZM16.048,22.589C16.968,23.652 17.957,24.744 19.032,25.841L21.888,23.039C20.883,22.016 19.952,20.988 19.072,19.971L16.048,22.589ZM19.059,25.867C20.155,26.943 21.234,27.96 22.346,28.905L24.934,25.855C23.926,25 22.925,24.057 21.861,23.013L19.059,25.867ZM22.348,28.907C23.447,29.837 24.43,30.535 25.284,30.988L27.156,27.452C26.65,27.185 25.913,26.683 24.932,25.853L22.348,28.907ZM25.477,31.077C25.474,31.076 25.485,31.08 25.552,31.111C25.605,31.135 25.694,31.176 25.792,31.218L27.368,27.542C27.326,27.524 27.285,27.505 27.218,27.474C27.165,27.45 27.066,27.404 26.963,27.363L25.477,31.077ZM25.878,31.253C26.33,31.422 26.745,31.46 27.08,31.46L27.08,27.46C27.063,27.46 27.082,27.459 27.122,27.465C27.166,27.472 27.222,27.485 27.282,27.507L25.878,31.253ZM27.08,31.46C27.979,31.46 28.74,31.109 29.314,30.534L26.486,27.706C26.529,27.663 26.617,27.59 26.751,27.532C26.887,27.475 27.007,27.46 27.08,27.46L27.08,31.46ZM29.305,30.544L30.825,29.044L28.015,26.196L26.495,27.696L29.305,30.544ZM30.834,29.034C31.253,28.615 31.57,28.385 31.785,28.273L29.935,24.727C29.23,25.095 28.587,25.625 28.006,26.206L30.834,29.034ZM31.9,28.208C32.086,28.095 32.19,28.08 32.28,28.08L32.28,24.08C31.37,24.08 30.554,24.345 29.82,24.792L31.9,28.208ZM32.28,28.08C32.367,28.08 32.51,28.096 32.743,28.191L34.257,24.489C33.61,24.224 32.953,24.08 32.28,24.08L32.28,28.08ZM32.743,28.191C33.015,28.302 33.35,28.484 33.775,28.774L36.025,25.466C35.45,25.076 34.865,24.738 34.257,24.489L32.743,28.191ZM33.742,28.751L40.362,33.451L42.678,30.189L36.058,25.489L33.742,28.751ZM40.382,33.464C40.644,33.646 40.739,33.792 40.789,33.905L44.451,32.295C44.061,31.408 43.436,30.714 42.658,30.176L40.382,33.464ZM40.763,33.843C40.89,34.16 40.94,34.406 40.94,34.66L44.94,34.66C44.94,33.794 44.75,33.04 44.477,32.357L40.763,33.843Z" fill="#199A8E"/>
</svg>
